eng/german audio
 
http://www.imdb.com/title/tt0486583/



This is a story you've never heard before, a hilarious and heartwarming comedy about Fred Claus, Santa's brother - and complete opposite. After growing up in a saintly Nick's shadow, Fred becomes a grouch who's lost his belief in Christmas. Then, one magical December, Fred flies north (first class via reindeer) to find brother Nick is in trouble: a scheming efficiency expert is out to shut down Christmas fever! Expect fun by the sleighful as Fred helps save Christmas and rediscovers the gift of family. Join Vince Vaughn, Paul Giamatii, Miranda Richardson, Rachel Weisz, Kathy Bates, Kevin Spacey and more in a yuletide treat to enjoy for years to come.


Format                           : MPEG-4
Format profile                   : Base Media / Version 2
Codec ID                         : mp42
File size                        : 999 MiB
Duration                         : 1h 50mn
Overall bit rate                 : 1 260 Kbps
Encoded date                     : UTC 2009-11-13 12:22:25
Tagged date                      : UTC 2009-11-13 17:43:45
Writing application              : HandBrake 0.9.3 2008112300

Video
ID                               : 1
Format                           : AVC
Format/Info                      : Advanced Video Codec
Format profile                   : Main@L4.0
Format settings, CABAC           : Yes
Format settings, ReFrames        : 3 frames
Codec ID                         : avc1
Codec ID/Info                    : Advanced Video Coding
Duration                         : 1h 50mn
Bit rate mode                    : Variable
Bit rate                         : 935 Kbps
Width                            : 720 pixels
Height                           : 428 pixels
Display aspect ratio             : 2.35:1
Original display aspect ratio    : 2.35:1
Frame rate mode                  : Variable
Frame rate                       : 25.000 fps
Minimum frame rate               : 12.500 fps
Maximum frame rate               : 25.000 fps
Resolution                       : 24 bits
Colorimetry                      : 4:2:0
Scan type                        : Progressive
Bits/(Pixel*Frame)               : 0.121
Stream size                      : 741 MiB (74%)
Writing library                  : x264 core 65
                     

Audio #1
ID                               : 2
Format                           : AAC
Format/Info                      : Advanced Audio Codec
Format version                   : Version 4
Format profile                   : LC
Format settings, SBR             : No
Codec ID                         : 40
Duration                         : 1h 50mn
Bit rate mode                    : Variable
Bit rate                         : 160 Kbps
Maximum bit rate                 : 232 Kbps
Channel(s)                       : 2 channels
Channel positions                : L R
Sampling rate                    : 48.0 KHz
Resolution                       : 16 bits
Stream size                      : 127 MiB (13%)
Language                         : English
Encoded date                     : UTC 2009-11-13 12:22:25
Tagged date                      : UTC 2009-11-13 17:43:40

Audio #2
ID                               : 3
Format                           : AAC
Format/Info                      : Advanced Audio Codec
Format version                   : Version 4
Format profile                   : LC
Format settings, SBR             : No
Codec ID                         : 40
Duration                         : 1h 50mn
Bit rate mode                    : Variable
Bit rate                         : 160 Kbps
Maximum bit rate                 : 208 Kbps
Channel(s)                       : 2 channels
Channel positions                : L R
Sampling rate                    : 48.0 KHz
Resolution                       : 16 bits
Stream size                      : 127 MiB (13%)
Language                         : German
Encoded date                     : UTC 2009-11-13 12:22:25
Tagged date                      : UTC 2009-11-13 17:43:40

